# xmcd
#
# Track frame offsets: 
#        150
#        18347
#        39159
#        56978
#        77317
#        96320
#        118145
#        135553
#        156803
#        177404
#        195274
#        217715
#        235398
#        257469
#        271634
#
# Disc length: 3846 seconds
#
# Revision: 0
# Processed by: cddbd v1.5.2PL0 Copyright (c) Steve Scherf et al.
# Submitted via: ExactAudioCopyFreeDBPlugin 1.0
#
DISCID=b90f040f
DTITLE=30A - STE20试音极品TESTCD
DYEAR=2015
DGENRE=STE
TTITLE0=当你老了
TTITLE1=夜空中最亮的星
TTITLE2=他不懂
TTITLE3=假如爱有天意
TTITLE4=蝴蝶结
TTITLE5=待我长发及腰
TTITLE6=后会无期
TTITLE7=泡沫
TTITLE8=其实都没有
TTITLE9=心动
TTITLE10=穷浪漫
TTITLE11=贝加尔湖畔
TTITLE12=愿得一人心
TTITLE13=一瞬间
TTITLE14=像风一样自由
EXTD=
EXTT0=
EXTT1=
EXTT2=
EXTT3=
EXTT4=
EXTT5=
EXTT6=
EXTT7=
EXTT8=
EXTT9=
EXTT10=
EXTT11=
EXTT12=
EXTT13=
EXTT14=
PLAYORDER=
